<?xml version="1.0" encoding="UTF-8"?>
<!DOCTYPE svg PUBLIC "-//W3C//DTD SVG 1.1//EN" "http://www.w3.org/Graphics/SVG/1.1/DTD/svg11.dtd">
<svg xmlns="http://www.w3.org/2000/svg" version="1.1" width="1951px" height="600px" style="shape-rendering:geometricPrecision; text-rendering:geometricPrecision; image-rendering:optimizeQuality; fill-rule:evenodd; clip-rule:evenodd" xmlns:xlink="http://www.w3.org/1999/xlink">
<g><path style="opacity:0.999" fill="#20181a" d="M 1591.5,-0.5 C 1671.17,-0.5 1750.83,-0.5 1830.5,-0.5C 1830.5,39.1667 1830.5,78.8333 1830.5,118.5C 1870.5,118.5 1910.5,118.5 1950.5,118.5C 1950.5,159.167 1950.5,199.833 1950.5,240.5C 1910.47,280.194 1870.47,319.86 1830.5,359.5C 1830.17,359.5 1829.83,359.5 1829.5,359.5C 1750.83,359.5 1672.17,359.5 1593.5,359.5C 1593.5,399.167 1593.5,438.833 1593.5,478.5C 1592.5,478.833 1591.83,479.5 1591.5,480.5C 1551.83,480.5 1512.17,480.5 1472.5,480.5C 1472.33,359.833 1472.5,239.166 1473,118.5C 1512.7,78.9654 1552.2,39.2987 1591.5,-0.5 Z M 1641.5,119.5 C 1704.17,119.5 1766.83,119.5 1829.5,119.5C 1829.67,142.836 1829.5,166.169 1829,189.5C 1813.2,206.305 1797.03,222.805 1780.5,239C 1718.17,239.5 1655.83,239.667 1593.5,239.5C 1593.33,215.831 1593.5,192.164 1594,168.5C 1610.4,152.602 1626.23,136.269 1641.5,119.5 Z"/></g>
<g><path style="opacity:0.99" fill="#20181a" d="M 539.5,211.5 C 564.091,208.715 586.758,213.882 607.5,227C 624.888,240.268 635.221,257.768 638.5,279.5C 620.821,279.833 603.154,279.5 585.5,278.5C 576.482,261.539 562.482,255.039 543.5,259C 528.974,264.519 520.474,275.019 518,290.5C 514.162,309.98 519.329,326.48 533.5,340C 551.916,349.6 568.083,346.767 582,331.5C 583.64,329.421 584.806,327.088 585.5,324.5C 603.154,323.5 620.821,323.167 638.5,323.5C 632.472,357.032 613.139,378.866 580.5,389C 554.379,395.145 529.379,392.145 505.5,380C 482.84,364.536 470.007,343.036 467,315.5C 463.957,290.376 468.957,267.043 482,245.5C 496.521,226.322 515.688,214.989 539.5,211.5 Z"/></g>
<g><path style="opacity:0.987" fill="#20181a" d="M 0.5,212.5 C 34.1868,212.099 67.8535,212.599 101.5,214C 137.014,220.542 150.181,241.375 141,276.5C 136.67,288.163 128.503,295.663 116.5,299C 142.649,310.043 152.482,329.543 146,357.5C 141.526,372.64 131.693,382.474 116.5,387C 111.861,388.128 107.195,389.128 102.5,390C 68.5016,390.5 34.5016,390.667 0.5,390.5C 0.5,331.167 0.5,271.833 0.5,212.5 Z M 50.5,253.5 C 61.9102,253.067 73.2436,253.567 84.5,255C 90.2539,257.603 92.9205,262.103 92.5,268.5C 93.0221,274.964 90.3554,279.464 84.5,282C 73.2298,283.409 61.8965,283.909 50.5,283.5C 50.5,273.5 50.5,263.5 50.5,253.5 Z M 50.5,318.5 C 62.5426,318.162 74.5426,318.662 86.5,320C 96.7993,325.626 99.2993,333.793 94,344.5C 90.845,347.667 87.0117,349.501 82.5,350C 71.8385,350.5 61.1719,350.667 50.5,350.5C 50.5,339.833 50.5,329.167 50.5,318.5 Z"/></g>
<g><path style="opacity:0.879" fill="#1d191a" d="M 171.5,212.5 C 170.886,216.135 170.552,219.802 170.5,223.5C 169.5,223.5 168.5,223.5 167.5,223.5C 167.167,278.504 167.5,333.504 168.5,388.5C 169.675,387.145 170.675,387.312 171.5,389C 183.674,389.169 195.674,389.669 207.5,390.5C 193.5,390.5 179.5,390.5 165.5,390.5C 165.5,331.167 165.5,271.833 165.5,212.5C 167.5,212.5 169.5,212.5 171.5,212.5 Z"/></g>
<g><path style="opacity:0.995" fill="#20181a" d="M 171.5,212.5 C 186.167,212.5 200.833,212.5 215.5,212.5C 215.5,259.167 215.5,305.833 215.5,352.5C 233.833,352.5 252.167,352.5 270.5,352.5C 270.5,365.167 270.5,377.833 270.5,390.5C 249.5,390.5 228.5,390.5 207.5,390.5C 195.674,389.669 183.674,389.169 171.5,389C 170.675,387.312 169.675,387.145 168.5,388.5C 167.5,333.504 167.167,278.504 167.5,223.5C 168.5,223.5 169.5,223.5 170.5,223.5C 170.552,219.802 170.886,216.135 171.5,212.5 Z"/></g>
<g><path style="opacity:0.992" fill="#20181a" d="M 657.5,212.5 C 674.167,212.5 690.833,212.5 707.5,212.5C 707.333,237.502 707.5,262.502 708,287.5C 725.974,262.693 744.14,238.026 762.5,213.5C 782.5,212.167 802.5,212.167 822.5,213.5C 800.024,242.477 777.357,271.31 754.5,300C 776.975,329.975 799.641,359.809 822.5,389.5C 802.167,390.833 781.833,390.833 761.5,389.5C 743.667,364.5 725.833,339.5 708,314.5C 707.5,339.831 707.333,365.164 707.5,390.5C 690.833,390.5 674.167,390.5 657.5,390.5C 657.5,331.167 657.5,271.833 657.5,212.5 Z"/></g>
<g><path style="opacity:0.99" fill="#20181a" d="M 842.5,390.5 C 841.791,389.596 840.791,389.263 839.5,389.5C 839.833,342.829 839.5,296.162 838.5,249.5C 837.712,248.23 836.712,247.23 835.5,246.5C 835.5,235.167 835.5,223.833 835.5,212.5C 869.187,212.099 902.853,212.599 936.5,214C 972.014,220.542 985.181,241.375 976,276.5C 971.67,288.163 963.503,295.663 951.5,299C 976.072,308.946 986.239,327.112 982,353.5C 978.568,369.203 969.402,380.036 954.5,386C 948.926,387.715 943.26,389.048 937.5,390C 905.835,390.5 874.168,390.667 842.5,390.5 Z M 885.5,253.5 C 896.91,253.067 908.244,253.567 919.5,255C 925.254,257.603 927.921,262.103 927.5,268.5C 928.022,274.964 925.355,279.464 919.5,282C 908.23,283.409 896.896,283.909 885.5,283.5C 885.5,273.5 885.5,263.5 885.5,253.5 Z M 885.5,318.5 C 897.543,318.162 909.543,318.662 921.5,320C 931.799,325.626 934.299,333.793 929,344.5C 925.845,347.667 922.012,349.501 917.5,350C 906.839,350.5 896.172,350.667 885.5,350.5C 885.5,339.833 885.5,329.167 885.5,318.5 Z"/></g>
<g><path style="opacity:0.986" fill="#20181a" d="M 1000.5,212.5 C 1038.83,212.5 1077.17,212.5 1115.5,212.5C 1115.5,226.167 1115.5,239.833 1115.5,253.5C 1093.83,253.5 1072.17,253.5 1050.5,253.5C 1050.5,262.833 1050.5,272.167 1050.5,281.5C 1069.5,281.5 1088.5,281.5 1107.5,281.5C 1107.5,294.167 1107.5,306.833 1107.5,319.5C 1088.5,319.5 1069.5,319.5 1050.5,319.5C 1050.5,329.833 1050.5,340.167 1050.5,350.5C 1072.17,350.5 1093.83,350.5 1115.5,350.5C 1115.5,363.833 1115.5,377.167 1115.5,390.5C 1077.17,390.5 1038.83,390.5 1000.5,390.5C 1000.5,331.167 1000.5,271.833 1000.5,212.5 Z"/></g>
<g><path style="opacity:0.996" fill="#20181a" d="M 1134.5,212.5 C 1151.17,212.5 1167.83,212.5 1184.5,212.5C 1184.5,259.167 1184.5,305.833 1184.5,352.5C 1202.83,352.5 1221.17,352.5 1239.5,352.5C 1239.5,365.167 1239.5,377.833 1239.5,390.5C 1204.5,390.5 1169.5,390.5 1134.5,390.5C 1134.5,331.167 1134.5,271.833 1134.5,212.5 Z"/></g>
<g><path style="opacity:0.989" fill="#20181a" d="M 1244.5,212.5 C 1292.5,212.5 1340.5,212.5 1388.5,212.5C 1388.5,226.167 1388.5,239.833 1388.5,253.5C 1372.83,253.5 1357.17,253.5 1341.5,253.5C 1341.5,299.167 1341.5,344.833 1341.5,390.5C 1324.83,390.5 1308.17,390.5 1291.5,390.5C 1291.5,344.833 1291.5,299.167 1291.5,253.5C 1275.83,253.5 1260.17,253.5 1244.5,253.5C 1244.5,239.833 1244.5,226.167 1244.5,212.5 Z"/></g>
<g><path style="opacity:0.993" fill="#20181a" d="M 337.5,213.5 C 356.836,213.333 376.17,213.5 395.5,214C 417.363,272.59 439.03,331.256 460.5,390C 442.503,390.5 424.503,390.667 406.5,390.5C 403.8,380.899 400.8,371.399 397.5,362C 376.825,361.167 356.159,361.334 335.5,362.5C 332.092,371.723 329.092,381.056 326.5,390.5C 308.833,390.5 291.167,390.5 273.5,390.5C 294.833,331.5 316.167,272.5 337.5,213.5 Z M 366.5,269.5 C 373.072,287.216 379.072,305.216 384.5,323.5C 372.482,323.832 360.482,323.499 348.5,322.5C 354.509,304.805 360.509,287.138 366.5,269.5 Z"/></g>
<g><path style="opacity:0.874" fill="#1c191a" d="M 835.5,246.5 C 836.712,247.23 837.712,248.23 838.5,249.5C 839.5,296.162 839.833,342.829 839.5,389.5C 840.791,389.263 841.791,389.596 842.5,390.5C 840.167,390.5 837.833,390.5 835.5,390.5C 835.5,342.5 835.5,294.5 835.5,246.5 Z"/></g>
<g><path style="opacity:0.506" fill="#ce4243" d="M 1829.5,359.5 C 1829.83,359.5 1830.17,359.5 1830.5,359.5C 1870.5,359.5 1910.5,359.5 1950.5,359.5C 1950.5,359.833 1950.5,360.167 1950.5,360.5C 1910.5,360.5 1870.5,360.5 1830.5,360.5C 1830.5,383.5 1830.5,406.5 1830.5,429.5C 1830.17,429.5 1829.83,429.5 1829.5,429.5C 1829.5,406.167 1829.5,382.833 1829.5,359.5 Z"/></g>
<g><path style="opacity:0.999" fill="#ee333a" d="M 1950.5,360.5 C 1950.5,400.167 1950.5,439.833 1950.5,479.5C 1936.83,492.5 1923.5,505.833 1910.5,519.5C 1909.83,519.5 1909.5,519.833 1909.5,520.5C 1908.17,520.5 1906.83,520.5 1905.5,520.5C 1904.22,521.791 1903.55,523.791 1903.5,526.5C 1879.5,550.833 1855.5,575.167 1831.5,599.5C 1753.5,599.5 1675.5,599.5 1597.5,599.5C 1597.34,597.143 1597.5,594.81 1598,592.5C 1599.01,591.663 1600.18,591.33 1601.5,591.5C 1601.33,589.508 1602,587.842 1603.5,586.5C 1601.98,584.709 1600.15,583.376 1598,582.5C 1597.33,580.5 1597.33,578.5 1598,576.5C 1599.01,575.663 1600.18,575.33 1601.5,575.5C 1601.33,573.508 1602,571.842 1603.5,570.5C 1601.98,568.709 1600.15,567.376 1598,566.5C 1597.33,564.5 1597.33,562.5 1598,560.5C 1599.01,559.663 1600.18,559.33 1601.5,559.5C 1601.33,557.508 1602,555.842 1603.5,554.5C 1601.98,552.709 1600.15,551.376 1598,550.5C 1597.33,548.5 1597.33,546.5 1598,544.5C 1599.01,543.663 1600.18,543.33 1601.5,543.5C 1601.33,541.508 1602,539.842 1603.5,538.5C 1601.98,536.709 1600.15,535.376 1598,534.5C 1597.33,532.5 1597.33,530.5 1598,528.5C 1599.01,527.663 1600.18,527.33 1601.5,527.5C 1601.33,525.508 1602,523.842 1603.5,522.5C 1601.98,520.709 1600.15,519.376 1598,518.5C 1597.33,516.5 1597.33,514.5 1598,512.5C 1599.01,511.663 1600.18,511.33 1601.5,511.5C 1601.33,509.508 1602,507.842 1603.5,506.5C 1601.98,504.709 1600.15,503.376 1598,502.5C 1597.33,500.5 1597.33,498.5 1598,496.5C 1599.01,495.663 1600.18,495.33 1601.5,495.5C 1602.17,492.833 1602.83,490.167 1603.5,487.5C 1604.83,487.5 1606.17,487.5 1607.5,487.5C 1607.5,486.167 1607.5,484.833 1607.5,483.5C 1610.11,483.723 1611.78,482.556 1612.5,480C 1616.5,479.333 1620.5,479.333 1624.5,480C 1625.78,482.466 1625.78,484.966 1624.5,487.5C 1623.16,489.005 1621.49,489.672 1619.5,489.5C 1619.5,491.5 1619.5,493.5 1619.5,495.5C 1624.83,495.5 1630.17,495.5 1635.5,495.5C 1635.66,493.801 1635.49,492.134 1635,490.5C 1632.76,488.796 1630.26,487.796 1627.5,487.5C 1627.23,484.881 1627.56,482.381 1628.5,480C 1632.5,479.333 1636.5,479.333 1640.5,480C 1641.45,484.439 1642.79,484.439 1644.5,480C 1648.5,479.333 1652.5,479.333 1656.5,480C 1657.78,482.466 1657.78,484.966 1656.5,487.5C 1655.16,489.005 1653.49,489.672 1651.5,489.5C 1651.5,491.5 1651.5,493.5 1651.5,495.5C 1656.83,495.5 1662.17,495.5 1667.5,495.5C 1667.66,493.801 1667.49,492.134 1667,490.5C 1664.76,488.796 1662.26,487.796 1659.5,487.5C 1659.23,484.881 1659.56,482.381 1660.5,480C 1664.5,479.333 1668.5,479.333 1672.5,480C 1673.45,484.439 1674.79,484.439 1676.5,480C 1680.5,479.333 1684.5,479.333 1688.5,480C 1689.78,482.466 1689.78,484.966 1688.5,487.5C 1687.16,489.005 1685.49,489.672 1683.5,489.5C 1683.5,491.5 1683.5,493.5 1683.5,495.5C 1688.83,495.5 1694.17,495.5 1699.5,495.5C 1699.66,493.801 1699.49,492.134 1699,490.5C 1696.76,488.796 1694.26,487.796 1691.5,487.5C 1691.23,484.881 1691.56,482.381 1692.5,480C 1696.5,479.333 1700.5,479.333 1704.5,480C 1705.45,484.439 1706.79,484.439 1708.5,480C 1712.5,479.333 1716.5,479.333 1720.5,480C 1721.78,482.466 1721.78,484.966 1720.5,487.5C 1719.16,489.005 1717.49,489.672 1715.5,489.5C 1715.5,491.5 1715.5,493.5 1715.5,495.5C 1720.83,495.5 1726.17,495.5 1731.5,495.5C 1731.66,493.801 1731.49,492.134 1731,490.5C 1728.76,488.796 1726.26,487.796 1723.5,487.5C 1723.23,484.881 1723.56,482.381 1724.5,480C 1728.5,479.333 1732.5,479.333 1736.5,480C 1737.45,484.439 1738.79,484.439 1740.5,480C 1744.5,479.333 1748.5,479.333 1752.5,480C 1753.78,482.466 1753.78,484.966 1752.5,487.5C 1751.16,489.005 1749.49,489.672 1747.5,489.5C 1747.5,491.5 1747.5,493.5 1747.5,495.5C 1752.83,495.5 1758.17,495.5 1763.5,495.5C 1763.66,493.801 1763.49,492.134 1763,490.5C 1760.76,488.796 1758.26,487.796 1755.5,487.5C 1755.23,484.881 1755.56,482.381 1756.5,480C 1760.5,479.333 1764.5,479.333 1768.5,480C 1769.34,481.011 1769.67,482.178 1769.5,483.5C 1771.5,483.5 1773.5,483.5 1775.5,483.5C 1775.5,484.833 1775.5,486.167 1775.5,487.5C 1778.17,487.5 1780.83,487.5 1783.5,487.5C 1783.5,486.167 1783.5,484.833 1783.5,483.5C 1788.91,482.76 1794.24,482.76 1799.5,483.5C 1799.58,481.334 1800.25,479.334 1801.5,477.5C 1799.28,473.8 1800.62,471.8 1805.5,471.5C 1806.16,465.506 1809.49,462.839 1815.5,463.5C 1815.05,460.348 1816.05,457.848 1818.5,456C 1821.48,455.502 1824.48,455.335 1827.5,455.5C 1827.5,453.5 1827.5,451.5 1827.5,449.5C 1824.77,449.829 1822.44,449.163 1820.5,447.5C 1821.5,447.5 1822.5,447.5 1823.5,447.5C 1822.66,444.846 1822.16,442.179 1822,439.5C 1822.8,438.196 1823.97,437.529 1825.5,437.5C 1827.33,438.754 1829.33,439.421 1831.5,439.5C 1831.42,437.334 1830.75,435.334 1829.5,433.5C 1829.85,432.151 1830.18,430.817 1830.5,429.5C 1830.5,406.5 1830.5,383.5 1830.5,360.5C 1870.5,360.5 1910.5,360.5 1950.5,360.5 Z"/></g>
<g><path style="opacity:0.988" fill="#ee343a" d="M 60.5,416.5 C 72.5534,416.109 84.5534,416.609 96.5,418C 104,420.167 108.833,425 111,432.5C 114.875,450.273 108.042,461.106 90.5,465C 85.8452,465.499 81.1785,465.666 76.5,465.5C 76.5,473.833 76.5,482.167 76.5,490.5C 71.1667,490.5 65.8333,490.5 60.5,490.5C 60.5,489.5 60.5,488.5 60.5,487.5C 61.4959,487.586 62.3292,487.252 63,486.5C 63.6667,466.833 63.6667,447.167 63,427.5C 62.6667,427.167 62.3333,426.833 62,426.5C 61.7216,427.416 61.2216,428.082 60.5,428.5C 60.5,424.5 60.5,420.5 60.5,416.5 Z M 76.5,430.5 C 83.2061,429.407 89.0395,431.074 94,435.5C 94.8538,439.625 94.5204,443.625 93,447.5C 88.0723,450.889 82.5723,452.223 76.5,451.5C 76.5,444.5 76.5,437.5 76.5,430.5 Z"/></g>
<g><path style="opacity:0.992" fill="#ed343a" d="M 172.5,416.5 C 185.606,415.932 198.606,416.765 211.5,419C 223.659,425.958 227.159,436.125 222,449.5C 219.31,453.69 215.81,457.024 211.5,459.5C 218.304,470.136 225.304,480.636 232.5,491C 226.167,491.667 219.833,491.667 213.5,491C 207.875,482.251 202.375,473.417 197,464.5C 194.281,463.556 191.448,463.223 188.5,463.5C 188.5,472.5 188.5,481.5 188.5,490.5C 183.167,490.5 177.833,490.5 172.5,490.5C 172.5,465.833 172.5,441.167 172.5,416.5 Z M 188.5,430.5 C 194.728,429.683 200.395,431.016 205.5,434.5C 208.355,439.785 207.355,444.285 202.5,448C 197.934,449.309 193.267,449.809 188.5,449.5C 188.5,443.167 188.5,436.833 188.5,430.5 Z"/></g>
<g><path style="opacity:0.681" fill="#ca4346" d="M 418.5,416.5 C 418.169,441.339 418.502,466.006 419.5,490.5C 420.5,490.5 421.5,490.5 422.5,490.5C 431.833,490.5 441.167,490.5 450.5,490.5C 439.679,491.495 428.679,491.828 417.5,491.5C 417.169,466.328 417.502,441.328 418.5,416.5 Z"/></g>
<g><path style="opacity:0.991" fill="#ef323c" d="M 418.5,416.5 C 419.5,416.5 420.5,416.5 421.5,416.5C 422.088,441.267 421.421,465.933 419.5,490.5C 418.502,466.006 418.169,441.339 418.5,416.5 Z"/></g>
<g><path style="opacity:0.998" fill="#ef3436" d="M 421.5,416.5 C 422.167,416.5 422.833,416.5 423.5,416.5C 423.318,418.591 423.652,420.591 424.5,422.5C 426.818,423.652 428.652,425.319 430,427.5C 430.499,431.486 430.666,435.486 430.5,439.5C 424.501,438.795 422.168,441.462 423.5,447.5C 423.559,449.891 423.893,452.225 424.5,454.5C 426.969,455.036 429.136,456.036 431,457.5C 431.564,462.194 431.397,466.86 430.5,471.5C 427.921,471.083 425.754,471.75 424,473.5C 423.688,479.199 423.188,484.866 422.5,490.5C 421.5,490.5 420.5,490.5 419.5,490.5C 421.421,465.933 422.088,441.267 421.5,416.5 Z"/></g>
<g><path style="opacity:0.587" fill="#cc4342" d="M 894.5,416.5 C 894.5,441.167 894.5,465.833 894.5,490.5C 899.833,490.5 905.167,490.5 910.5,490.5C 905.025,491.489 899.358,491.822 893.5,491.5C 893.169,466.328 893.502,441.328 894.5,416.5 Z"/></g>
<g><path style="opacity:0.994" fill="#ed343b" d="M 1170.5,416.5 C 1170.5,441.167 1170.5,465.833 1170.5,490.5C 1163.5,490.5 1156.5,490.5 1149.5,490.5C 1142.83,478.833 1136.17,467.167 1129.5,455.5C 1133.73,457.607 1136.4,460.941 1137.5,465.5C 1138.85,464.05 1140.52,463.383 1142.5,463.5C 1144.33,460.492 1145.66,457.158 1146.5,453.5C 1149.89,458.605 1153.06,463.938 1156,469.5C 1156.5,451.836 1156.67,434.17 1156.5,416.5C 1161.17,416.5 1165.83,416.5 1170.5,416.5 Z"/></g>
<g><path style="opacity:0.525" fill="#cc4149" d="M 1170.5,416.5 C 1171.5,441.328 1171.83,466.328 1171.5,491.5C 1163.98,491.825 1156.65,491.492 1149.5,490.5C 1156.5,490.5 1163.5,490.5 1170.5,490.5C 1170.5,465.833 1170.5,441.167 1170.5,416.5 Z"/></g>
<g><path style="opacity:0.993" fill="#ed343a" d="M 540.5,416.5 C 546.167,416.5 551.833,416.5 557.5,416.5C 557.333,433.503 557.5,450.503 558,467.5C 559.333,474.996 563.833,478.663 571.5,478.5C 578.529,479.082 583.029,476.082 585,469.5C 586.414,451.875 586.914,434.209 586.5,416.5C 591.833,416.5 597.167,416.5 602.5,416.5C 602.667,435.17 602.5,453.836 602,472.5C 597.189,487.007 587.022,493.674 571.5,492.5C 554.079,493.568 543.912,485.568 541,468.5C 540.5,451.17 540.333,433.837 540.5,416.5 Z"/></g>
<g><path style="opacity:0.998" fill="#ed343a" d="M 1253.5,477.5 C 1261.65,478.493 1269.98,478.826 1278.5,478.5C 1278.5,482.5 1278.5,486.5 1278.5,490.5C 1264.5,490.5 1250.5,490.5 1236.5,490.5C 1236.5,465.833 1236.5,441.167 1236.5,416.5C 1250.83,416.5 1265.17,416.5 1279.5,416.5C 1279.5,421.167 1279.5,425.833 1279.5,430.5C 1270.5,430.5 1261.5,430.5 1252.5,430.5C 1252.5,435.5 1252.5,440.5 1252.5,445.5C 1261.17,445.5 1269.83,445.5 1278.5,445.5C 1278.5,450.167 1278.5,454.833 1278.5,459.5C 1269.83,459.5 1261.17,459.5 1252.5,459.5C 1252.18,465.69 1252.51,471.69 1253.5,477.5 Z"/></g>
<g><path style="opacity:0.993" fill="#ed343a" d="M 806.5,415.5 C 812.555,415.338 818.555,415.838 824.5,417C 828.374,417.727 831.707,419.393 834.5,422C 833,425.833 831.5,429.667 830,433.5C 829.439,434.022 828.772,434.355 828,434.5C 820.164,429.487 811.997,428.653 803.5,432C 798.964,435.862 796.131,440.695 795,446.5C 791.869,475.373 803.869,484.706 831,474.5C 831.829,479.533 831.662,484.533 830.5,489.5C 791.098,499.268 773.598,483.935 778,443.5C 781.474,427.858 790.974,418.525 806.5,415.5 Z"/></g>
<g><path style="opacity:0.991" fill="#ed343b" d="M 423.5,416.5 C 431.84,416.334 440.173,416.5 448.5,417C 469.251,420.255 479.918,432.422 480.5,453.5C 480.652,474.246 470.652,486.58 450.5,490.5C 441.167,490.5 431.833,490.5 422.5,490.5C 423.188,484.866 423.688,479.199 424,473.5C 425.754,471.75 427.921,471.083 430.5,471.5C 431.397,466.86 431.564,462.194 431,457.5C 429.136,456.036 426.969,455.036 424.5,454.5C 423.893,452.225 423.559,449.891 423.5,447.5C 422.168,441.462 424.501,438.795 430.5,439.5C 430.666,435.486 430.499,431.486 430,427.5C 428.652,425.319 426.818,423.652 424.5,422.5C 423.652,420.591 423.318,418.591 423.5,416.5 Z M 434.5,430.5 C 452.372,428.054 461.706,435.721 462.5,453.5C 462.171,471.821 452.838,479.821 434.5,477.5C 434.5,461.833 434.5,446.167 434.5,430.5 Z"/></g>
<g><path style="opacity:1" fill="#ed343a" d="M 999.5,415.5 C 1027.26,412.762 1041.92,425.262 1043.5,453C 1042.56,482.938 1027.23,495.938 997.5,492C 984,489.167 975.833,481 973,467.5C 969.84,453.841 971.507,440.841 978,428.5C 983.571,421.467 990.738,417.134 999.5,415.5 Z M 1004.5,429.5 C 1016.62,428.792 1023.46,434.459 1025,446.5C 1027.54,457.734 1025.04,467.567 1017.5,476C 1003.61,481.97 994.444,477.803 990,463.5C 989.152,456.101 989.485,448.767 991,441.5C 993.221,434.77 997.721,430.77 1004.5,429.5 Z"/></g>
<g><path style="opacity:0.93" fill="#ef3339" d="M 894.5,416.5 C 899.833,416.5 905.167,416.5 910.5,416.5C 910.5,441.167 910.5,465.833 910.5,490.5C 905.167,490.5 899.833,490.5 894.5,490.5C 894.5,465.833 894.5,441.167 894.5,416.5 Z"/></g>
<g><path style="opacity:0.392" fill="#cc4249" d="M 60.5,416.5 C 60.5,420.5 60.5,424.5 60.5,428.5C 60.5,448.167 60.5,467.833 60.5,487.5C 60.5,488.5 60.5,489.5 60.5,490.5C 65.8333,490.5 71.1667,490.5 76.5,490.5C 71.0247,491.489 65.358,491.822 59.5,491.5C 59.169,466.328 59.5023,441.328 60.5,416.5 Z"/></g>
<g><path style="opacity:1" fill="#ed3240" d="M 60.5,487.5 C 60.5,467.833 60.5,448.167 60.5,428.5C 61.2216,428.082 61.7216,427.416 62,426.5C 62.3333,426.833 62.6667,427.167 63,427.5C 63.6667,447.167 63.6667,466.833 63,486.5C 62.3292,487.252 61.4959,487.586 60.5,487.5 Z"/></g>
<g><path style="opacity:0.999" fill="#ed343a" d="M 687.5,491.5 C 684.912,489.375 681.912,488.042 678.5,487.5C 680.146,481.756 677.813,479.09 671.5,479.5C 671.5,478.167 671.5,476.833 671.5,475.5C 670.167,475.5 668.833,475.5 667.5,475.5C 660.846,457.846 662.68,441.18 673,425.5C 687.692,414.231 703.526,412.565 720.5,420.5C 720.833,420.833 721.167,421.167 721.5,421.5C 719.831,426.171 717.664,430.504 715,434.5C 694.152,424.507 682.652,431.007 680.5,454C 680.406,462.39 683.073,469.723 688.5,476C 698.499,479.488 708.332,478.988 718,474.5C 718.829,479.533 718.662,484.533 717.5,489.5C 714.93,490.634 712.264,491.468 709.5,492C 701.988,492.822 694.655,492.655 687.5,491.5 Z"/></g>
<g><path style="opacity:1" fill="#ea343d" d="M 1829.5,429.5 C 1829.83,429.5 1830.17,429.5 1830.5,429.5C 1830.18,430.817 1829.85,432.151 1829.5,433.5C 1830.75,435.334 1831.42,437.334 1831.5,439.5C 1829.33,439.421 1827.33,438.754 1825.5,437.5C 1823.97,437.529 1822.8,438.196 1822,439.5C 1822.16,442.179 1822.66,444.846 1823.5,447.5C 1822.5,447.5 1821.5,447.5 1820.5,447.5C 1818.41,444.886 1816.24,444.886 1814,447.5C 1814.4,450.451 1814.9,453.451 1815.5,456.5C 1814.17,456.5 1812.83,456.5 1811.5,456.5C 1811.5,455.5 1811.5,454.5 1811.5,453.5C 1809.28,453.178 1807.44,453.845 1806,455.5C 1806.16,458.179 1806.66,460.846 1807.5,463.5C 1804.85,462.658 1802.18,462.158 1799.5,462C 1798.2,462.804 1797.53,463.971 1797.5,465.5C 1798.75,467.334 1799.42,469.334 1799.5,471.5C 1796.85,470.658 1794.18,470.158 1791.5,470C 1789.05,472.536 1789.05,475.203 1791.5,478C 1791.29,479.871 1790.29,481.038 1788.5,481.5C 1787.82,479.875 1786.65,478.542 1785,477.5C 1782.58,479.493 1780.08,479.826 1777.5,478.5C 1778.87,478.657 1780.21,478.49 1781.5,478C 1797.7,461.965 1813.7,445.799 1829.5,429.5 Z"/></g>
<g><path style="opacity:0.106" fill="#cb4346" d="M 172.5,416.5 C 172.5,441.167 172.5,465.833 172.5,490.5C 177.833,490.5 183.167,490.5 188.5,490.5C 183.025,491.489 177.358,491.822 171.5,491.5C 171.169,466.328 171.502,441.328 172.5,416.5 Z"/></g>
<g><path style="opacity:0.991" fill="#ed343a" d="M 1357.5,415.5 C 1363.57,415.261 1369.57,415.761 1375.5,417C 1379.2,418.11 1382.53,419.777 1385.5,422C 1384.06,426.373 1382.23,430.54 1380,434.5C 1372.9,430.345 1365.4,429.178 1357.5,431C 1354.42,433.612 1353.76,436.779 1355.5,440.5C 1362.84,445.504 1370.5,450.004 1378.5,454C 1388.04,463.774 1388.88,474.274 1381,485.5C 1377.16,489 1372.66,491.166 1367.5,492C 1361.17,492.667 1354.83,492.667 1348.5,492C 1344.61,491.535 1340.94,490.369 1337.5,488.5C 1336.17,483.167 1336.17,477.833 1337.5,472.5C 1346.22,477.513 1355.55,479.347 1365.5,478C 1369.64,475.28 1370.48,471.78 1368,467.5C 1360.58,462.874 1353.08,458.374 1345.5,454C 1336.77,445.36 1335.27,435.527 1341,424.5C 1345.52,419.495 1351.02,416.495 1357.5,415.5 Z"/></g>
<g><path style="opacity:0.634" fill="#ce4147" d="M 1118.5,441.5 C 1119.5,457.992 1119.83,474.658 1119.5,491.5C 1114.31,491.821 1109.31,491.487 1104.5,490.5C 1109.17,490.5 1113.83,490.5 1118.5,490.5C 1118.5,474.167 1118.5,457.833 1118.5,441.5 Z"/></g>
<g><path style="opacity:0.928" fill="#ee3437" d="M 1820.5,447.5 C 1822.44,449.163 1824.77,449.829 1827.5,449.5C 1827.5,451.5 1827.5,453.5 1827.5,455.5C 1824.48,455.335 1821.48,455.502 1818.5,456C 1816.05,457.848 1815.05,460.348 1815.5,463.5C 1809.49,462.839 1806.16,465.506 1805.5,471.5C 1800.62,471.8 1799.28,473.8 1801.5,477.5C 1800.25,479.334 1799.58,481.334 1799.5,483.5C 1794.24,482.76 1788.91,482.76 1783.5,483.5C 1783.5,484.833 1783.5,486.167 1783.5,487.5C 1780.83,487.5 1778.17,487.5 1775.5,487.5C 1775.5,486.167 1775.5,484.833 1775.5,483.5C 1773.5,483.5 1771.5,483.5 1769.5,483.5C 1769.67,482.178 1769.34,481.011 1768.5,480C 1764.5,479.333 1760.5,479.333 1756.5,480C 1755.56,482.381 1755.23,484.881 1755.5,487.5C 1758.26,487.796 1760.76,488.796 1763,490.5C 1763.49,492.134 1763.66,493.801 1763.5,495.5C 1758.17,495.5 1752.83,495.5 1747.5,495.5C 1747.5,493.5 1747.5,491.5 1747.5,489.5C 1749.49,489.672 1751.16,489.005 1752.5,487.5C 1753.78,484.966 1753.78,482.466 1752.5,480C 1748.5,479.333 1744.5,479.333 1740.5,480C 1738.79,484.439 1737.45,484.439 1736.5,480C 1732.5,479.333 1728.5,479.333 1724.5,480C 1723.56,482.381 1723.23,484.881 1723.5,487.5C 1726.26,487.796 1728.76,488.796 1731,490.5C 1731.49,492.134 1731.66,493.801 1731.5,495.5C 1726.17,495.5 1720.83,495.5 1715.5,495.5C 1715.5,493.5 1715.5,491.5 1715.5,489.5C 1717.49,489.672 1719.16,489.005 1720.5,487.5C 1721.78,484.966 1721.78,482.466 1720.5,480C 1716.5,479.333 1712.5,479.333 1708.5,480C 1706.79,484.439 1705.45,484.439 1704.5,480C 1700.5,479.333 1696.5,479.333 1692.5,480C 1691.56,482.381 1691.23,484.881 1691.5,487.5C 1694.26,487.796 1696.76,488.796 1699,490.5C 1699.49,492.134 1699.66,493.801 1699.5,495.5C 1694.17,495.5 1688.83,495.5 1683.5,495.5C 1683.5,493.5 1683.5,491.5 1683.5,489.5C 1685.49,489.672 1687.16,489.005 1688.5,487.5C 1689.78,484.966 1689.78,482.466 1688.5,480C 1684.5,479.333 1680.5,479.333 1676.5,480C 1674.79,484.439 1673.45,484.439 1672.5,480C 1668.5,479.333 1664.5,479.333 1660.5,480C 1659.56,482.381 1659.23,484.881 1659.5,487.5C 1662.26,487.796 1664.76,488.796 1667,490.5C 1667.49,492.134 1667.66,493.801 1667.5,495.5C 1662.17,495.5 1656.83,495.5 1651.5,495.5C 1651.5,493.5 1651.5,491.5 1651.5,489.5C 1653.49,489.672 1655.16,489.005 1656.5,487.5C 1657.78,484.966 1657.78,482.466 1656.5,480C 1652.5,479.333 1648.5,479.333 1644.5,480C 1642.79,484.439 1641.45,484.439 1640.5,480C 1636.5,479.333 1632.5,479.333 1628.5,480C 1627.56,482.381 1627.23,484.881 1627.5,487.5C 1630.26,487.796 1632.76,488.796 1635,490.5C 1635.49,492.134 1635.66,493.801 1635.5,495.5C 1630.17,495.5 1624.83,495.5 1619.5,495.5C 1619.5,493.5 1619.5,491.5 1619.5,489.5C 1621.49,489.672 1623.16,489.005 1624.5,487.5C 1625.78,484.966 1625.78,482.466 1624.5,480C 1620.5,479.333 1616.5,479.333 1612.5,480C 1611.78,482.556 1610.11,483.723 1607.5,483.5C 1607.5,484.833 1607.5,486.167 1607.5,487.5C 1606.17,487.5 1604.83,487.5 1603.5,487.5C 1602.83,490.167 1602.17,492.833 1601.5,495.5C 1600.18,495.33 1599.01,495.663 1598,496.5C 1597.33,498.5 1597.33,500.5 1598,502.5C 1600.15,503.376 1601.98,504.709 1603.5,506.5C 1602,507.842 1601.33,509.508 1601.5,511.5C 1600.18,511.33 1599.01,511.663 1598,512.5C 1597.33,514.5 1597.33,516.5 1598,518.5C 1600.15,519.376 1601.98,520.709 1603.5,522.5C 1602,523.842 1601.33,525.508 1601.5,527.5C 1600.18,527.33 1599.01,527.663 1598,528.5C 1597.33,530.5 1597.33,532.5 1598,534.5C 1600.15,535.376 1601.98,536.709 1603.5,538.5C 1602,539.842 1601.33,541.508 1601.5,543.5C 1600.18,543.33 1599.01,543.663 1598,544.5C 1597.33,546.5 1597.33,548.5 1598,550.5C 1600.15,551.376 1601.98,552.709 1603.5,554.5C 1602,555.842 1601.33,557.508 1601.5,559.5C 1600.18,559.33 1599.01,559.663 1598,560.5C 1597.33,562.5 1597.33,564.5 1598,566.5C 1600.15,567.376 1601.98,568.709 1603.5,570.5C 1602,571.842 1601.33,573.508 1601.5,575.5C 1600.18,575.33 1599.01,575.663 1598,576.5C 1597.33,578.5 1597.33,580.5 1598,582.5C 1600.15,583.376 1601.98,584.709 1603.5,586.5C 1602,587.842 1601.33,589.508 1601.5,591.5C 1600.18,591.33 1599.01,591.663 1598,592.5C 1597.5,594.81 1597.34,597.143 1597.5,599.5C 1595.83,599.5 1594.17,599.5 1592.5,599.5C 1592.83,559.663 1592.5,519.996 1591.5,480.5C 1591.83,479.5 1592.5,478.833 1593.5,478.5C 1654.83,478.5 1716.17,478.5 1777.5,478.5C 1780.08,479.826 1782.58,479.493 1785,477.5C 1786.65,478.542 1787.82,479.875 1788.5,481.5C 1790.29,481.038 1791.29,479.871 1791.5,478C 1789.05,475.203 1789.05,472.536 1791.5,470C 1794.18,470.158 1796.85,470.658 1799.5,471.5C 1799.42,469.334 1798.75,467.334 1797.5,465.5C 1797.53,463.971 1798.2,462.804 1799.5,462C 1802.18,462.158 1804.85,462.658 1807.5,463.5C 1806.66,460.846 1806.16,458.179 1806,455.5C 1807.44,453.845 1809.28,453.178 1811.5,453.5C 1811.5,454.5 1811.5,455.5 1811.5,456.5C 1812.83,456.5 1814.17,456.5 1815.5,456.5C 1814.9,453.451 1814.4,450.451 1814,447.5C 1816.24,444.886 1818.41,444.886 1820.5,447.5 Z"/></g>
<g><path style="opacity:0.982" fill="#ee3339" d="M 1146.5,453.5 C 1145.66,457.158 1144.33,460.492 1142.5,463.5C 1140.52,463.383 1138.85,464.05 1137.5,465.5C 1136.4,460.941 1133.73,457.607 1129.5,455.5C 1126.26,449.363 1122.76,443.363 1119,437.5C 1118.51,438.793 1118.34,440.127 1118.5,441.5C 1118.5,457.833 1118.5,474.167 1118.5,490.5C 1113.83,490.5 1109.17,490.5 1104.5,490.5C 1104.5,465.833 1104.5,441.167 1104.5,416.5C 1111.51,416.334 1118.51,416.5 1125.5,417C 1132.89,428.949 1139.89,441.116 1146.5,453.5 Z"/></g>
<g><path style="opacity:1" fill="#ed343a" d="M 312.5,415.5 C 340.701,412.867 355.367,425.701 356.5,454C 355.074,483.421 339.741,496.088 310.5,492C 297.446,489.279 289.279,481.446 286,468.5C 283.297,455.833 284.297,443.499 289,431.5C 294.402,422.552 302.235,417.219 312.5,415.5 Z M 317.5,429.5 C 330.092,428.925 336.926,434.925 338,447.5C 339.982,457.737 337.815,466.903 331.5,475C 317.946,482.301 308.446,478.801 303,464.5C 300.963,456.417 301.296,448.417 304,440.5C 306.616,434.372 311.116,430.706 317.5,429.5 Z"/></g>
<g><path style="opacity:1" fill="#e63740" d="M 667.5,475.5 C 668.833,475.5 670.167,475.5 671.5,475.5C 671.5,476.833 671.5,478.167 671.5,479.5C 677.813,479.09 680.146,481.756 678.5,487.5C 681.912,488.042 684.912,489.375 687.5,491.5C 678.186,489.524 671.52,484.191 667.5,475.5 Z"/></g>
<g><path style="opacity:0.973" fill="#cc4246" d="M 1253.5,477.5 C 1262.17,477.5 1270.83,477.5 1279.5,477.5C 1279.5,482.167 1279.5,486.833 1279.5,491.5C 1264.99,491.829 1250.66,491.496 1236.5,490.5C 1250.5,490.5 1264.5,490.5 1278.5,490.5C 1278.5,486.5 1278.5,482.5 1278.5,478.5C 1269.98,478.826 1261.65,478.493 1253.5,477.5 Z"/></g>
<g><path style="opacity:0.098" fill="#571914" d="M 1910.5,519.5 C 1911.83,520.167 1911.83,520.167 1910.5,519.5 Z"/></g>
<g><path style="opacity:1" fill="#c1272a" d="M 1909.5,520.5 C 1907.83,522.833 1905.83,524.833 1903.5,526.5C 1903.55,523.791 1904.22,521.791 1905.5,520.5C 1906.83,520.5 1908.17,520.5 1909.5,520.5 Z"/></g>
</svg>
