<?xml version="1.0" encoding="UTF-8"?>
<!DOCTYPE svg PUBLIC "-//W3C//DTD SVG 1.1//EN" "http://www.w3.org/Graphics/SVG/1.1/DTD/svg11.dtd">
<svg xmlns="http://www.w3.org/2000/svg" version="1.1" width="1951px" height="600px" style="shape-rendering:geometricPrecision; text-rendering:geometricPrecision; image-rendering:optimizeQuality; fill-rule:evenodd; clip-rule:evenodd" xmlns:xlink="http://www.w3.org/1999/xlink">
<g><path style="opacity:0.993" fill="#fefffe" d="M 1591.5,-0.5 C 1671.17,-0.5 1750.83,-0.5 1830.5,-0.5C 1830.5,39.1667 1830.5,78.8333 1830.5,118.5C 1870.5,118.5 1910.5,118.5 1950.5,118.5C 1950.5,159.167 1950.5,199.833 1950.5,240.5C 1910.67,280.16 1870.67,319.66 1830.5,359C 1870.5,359.5 1910.5,359.667 1950.5,359.5C 1950.5,399.5 1950.5,439.5 1950.5,479.5C 1936.83,492.5 1923.5,505.833 1910.5,519.5C 1884.19,546.14 1857.86,572.806 1831.5,599.5C 1751.83,599.5 1672.17,599.5 1592.5,599.5C 1592.5,559.833 1592.5,520.167 1592.5,480.5C 1552.5,480.5 1512.5,480.5 1472.5,480.5C 1472.33,359.833 1472.5,239.166 1473,118.5C 1512.7,78.9654 1552.2,39.2987 1591.5,-0.5 Z M 1641.5,119.5 C 1704.17,119.5 1766.83,119.5 1829.5,119.5C 1829.67,142.836 1829.5,166.169 1829,189.5C 1813.2,206.305 1797.03,222.805 1780.5,239C 1718.17,239.5 1655.83,239.667 1593.5,239.5C 1593.33,215.831 1593.5,192.164 1594,168.5C 1610.4,152.602 1626.23,136.269 1641.5,119.5 Z M 1593.5,359.5 C 1672.17,359.5 1750.83,359.5 1829.5,359.5C 1829.67,383.169 1829.5,406.836 1829,430.5C 1813.17,446.333 1797.33,462.167 1781.5,478C 1718.83,478.5 1656.17,478.667 1593.5,478.5C 1593.5,438.833 1593.5,399.167 1593.5,359.5 Z"/></g>
<g><path style="opacity:0.973" fill="#fefffe" d="M 539.5,211.5 C 564.091,208.715 586.758,213.882 607.5,227C 624.888,240.268 635.221,257.768 638.5,279.5C 620.821,279.833 603.154,279.5 585.5,278.5C 576.482,261.539 562.482,255.039 543.5,259C 528.974,264.519 520.474,275.019 518,290.5C 514.162,309.98 519.329,326.48 533.5,340C 551.916,349.6 568.083,346.767 582,331.5C 583.64,329.421 584.806,327.088 585.5,324.5C 603.154,323.5 620.821,323.167 638.5,323.5C 632.472,357.032 613.139,378.866 580.5,389C 554.379,395.145 529.379,392.145 505.5,380C 482.84,364.536 470.007,343.036 467,315.5C 463.957,290.376 468.957,267.043 482,245.5C 496.521,226.322 515.688,214.989 539.5,211.5 Z"/></g>
<g><path style="opacity:0.978" fill="#fefffe" d="M 0.5,212.5 C 34.1868,212.099 67.8535,212.599 101.5,214C 137.014,220.542 150.181,241.375 141,276.5C 136.67,288.163 128.503,295.663 116.5,299C 142.649,310.043 152.482,329.543 146,357.5C 141.526,372.64 131.693,382.474 116.5,387C 111.861,388.128 107.195,389.128 102.5,390C 68.5016,390.5 34.5016,390.667 0.5,390.5C 0.5,331.167 0.5,271.833 0.5,212.5 Z M 50.5,253.5 C 61.9102,253.067 73.2436,253.567 84.5,255C 90.2539,257.603 92.9205,262.103 92.5,268.5C 93.0221,274.964 90.3554,279.464 84.5,282C 73.2298,283.409 61.8965,283.909 50.5,283.5C 50.5,273.5 50.5,263.5 50.5,253.5 Z M 50.5,318.5 C 62.5426,318.162 74.5426,318.662 86.5,320C 96.7993,325.626 99.2993,333.793 94,344.5C 90.845,347.667 87.0117,349.501 82.5,350C 71.8385,350.5 61.1719,350.667 50.5,350.5C 50.5,339.833 50.5,329.167 50.5,318.5 Z"/></g>
<g><path style="opacity:0.981" fill="#fefffe" d="M 165.5,212.5 C 182.167,212.5 198.833,212.5 215.5,212.5C 215.5,259.167 215.5,305.833 215.5,352.5C 233.833,352.5 252.167,352.5 270.5,352.5C 270.5,365.167 270.5,377.833 270.5,390.5C 235.5,390.5 200.5,390.5 165.5,390.5C 165.5,331.167 165.5,271.833 165.5,212.5 Z"/></g>
<g><path style="opacity:0.973" fill="#fefffe" d="M 657.5,212.5 C 674.167,212.5 690.833,212.5 707.5,212.5C 707.333,237.502 707.5,262.502 708,287.5C 725.974,262.693 744.14,238.026 762.5,213.5C 782.5,212.167 802.5,212.167 822.5,213.5C 800.024,242.477 777.357,271.31 754.5,300C 776.975,329.975 799.641,359.809 822.5,389.5C 802.167,390.833 781.833,390.833 761.5,389.5C 743.667,364.5 725.833,339.5 708,314.5C 707.5,339.831 707.333,365.164 707.5,390.5C 690.833,390.5 674.167,390.5 657.5,390.5C 657.5,331.167 657.5,271.833 657.5,212.5 Z"/></g>
<g><path style="opacity:0.978" fill="#fefffe" d="M 835.5,212.5 C 869.187,212.099 902.853,212.599 936.5,214C 972.014,220.542 985.181,241.375 976,276.5C 971.67,288.163 963.503,295.663 951.5,299C 977.649,310.043 987.482,329.543 981,357.5C 976.526,372.64 966.693,382.474 951.5,387C 946.861,388.128 942.195,389.128 937.5,390C 903.502,390.5 869.502,390.667 835.5,390.5C 835.5,331.167 835.5,271.833 835.5,212.5 Z M 885.5,253.5 C 896.91,253.067 908.244,253.567 919.5,255C 925.254,257.603 927.921,262.103 927.5,268.5C 928.022,274.964 925.355,279.464 919.5,282C 908.23,283.409 896.896,283.909 885.5,283.5C 885.5,273.5 885.5,263.5 885.5,253.5 Z M 885.5,318.5 C 897.543,318.162 909.543,318.662 921.5,320C 931.799,325.626 934.299,333.793 929,344.5C 925.845,347.667 922.012,349.501 917.5,350C 906.839,350.5 896.172,350.667 885.5,350.5C 885.5,339.833 885.5,329.167 885.5,318.5 Z"/></g>
<g><path style="opacity:0.976" fill="#fefffe" d="M 1000.5,212.5 C 1038.83,212.5 1077.17,212.5 1115.5,212.5C 1115.5,226.167 1115.5,239.833 1115.5,253.5C 1093.83,253.5 1072.17,253.5 1050.5,253.5C 1050.5,262.833 1050.5,272.167 1050.5,281.5C 1069.5,281.5 1088.5,281.5 1107.5,281.5C 1107.5,294.167 1107.5,306.833 1107.5,319.5C 1088.5,319.5 1069.5,319.5 1050.5,319.5C 1050.5,329.833 1050.5,340.167 1050.5,350.5C 1072.17,350.5 1093.83,350.5 1115.5,350.5C 1115.5,363.833 1115.5,377.167 1115.5,390.5C 1077.17,390.5 1038.83,390.5 1000.5,390.5C 1000.5,331.167 1000.5,271.833 1000.5,212.5 Z"/></g>
<g><path style="opacity:0.981" fill="#fefffe" d="M 1134.5,212.5 C 1151.17,212.5 1167.83,212.5 1184.5,212.5C 1184.5,259.167 1184.5,305.833 1184.5,352.5C 1202.83,352.5 1221.17,352.5 1239.5,352.5C 1239.5,365.167 1239.5,377.833 1239.5,390.5C 1204.5,390.5 1169.5,390.5 1134.5,390.5C 1134.5,331.167 1134.5,271.833 1134.5,212.5 Z"/></g>
<g><path style="opacity:0.972" fill="#fefffe" d="M 1244.5,212.5 C 1292.5,212.5 1340.5,212.5 1388.5,212.5C 1388.5,226.167 1388.5,239.833 1388.5,253.5C 1372.83,253.5 1357.17,253.5 1341.5,253.5C 1341.5,299.167 1341.5,344.833 1341.5,390.5C 1324.83,390.5 1308.17,390.5 1291.5,390.5C 1291.5,344.833 1291.5,299.167 1291.5,253.5C 1275.83,253.5 1260.17,253.5 1244.5,253.5C 1244.5,239.833 1244.5,226.167 1244.5,212.5 Z"/></g>
<g><path style="opacity:0.976" fill="#fefffe" d="M 337.5,213.5 C 356.836,213.333 376.17,213.5 395.5,214C 417.363,272.59 439.03,331.256 460.5,390C 442.503,390.5 424.503,390.667 406.5,390.5C 403.8,380.899 400.8,371.399 397.5,362C 376.825,361.167 356.159,361.334 335.5,362.5C 332.092,371.723 329.092,381.056 326.5,390.5C 308.833,390.5 291.167,390.5 273.5,390.5C 294.833,331.5 316.167,272.5 337.5,213.5 Z M 366.5,269.5 C 373.072,287.216 379.072,305.216 384.5,323.5C 372.482,323.832 360.482,323.499 348.5,322.5C 354.509,304.805 360.509,287.138 366.5,269.5 Z"/></g>
<g><path style="opacity:0.929" fill="#fefffe" d="M 312.5,415.5 C 340.701,412.867 355.367,425.701 356.5,454C 355.074,483.421 339.741,496.088 310.5,492C 297.446,489.279 289.279,481.446 286,468.5C 283.297,455.833 284.297,443.499 289,431.5C 294.402,422.552 302.235,417.219 312.5,415.5 Z M 317.5,429.5 C 330.092,428.925 336.926,434.925 338,447.5C 339.982,457.737 337.815,466.903 331.5,475C 317.946,482.301 308.446,478.801 303,464.5C 300.963,456.417 301.296,448.417 304,440.5C 306.616,434.372 311.116,430.706 317.5,429.5 Z"/></g>
<g><path style="opacity:0.916" fill="#fefffe" d="M 693.5,415.5 C 703.466,414.826 712.8,416.826 721.5,421.5C 719.831,426.171 717.664,430.504 715,434.5C 694.152,424.507 682.652,431.007 680.5,454C 680.406,462.39 683.073,469.723 688.5,476C 698.499,479.488 708.332,478.988 718,474.5C 718.829,479.533 718.662,484.533 717.5,489.5C 680.898,500.048 663.064,486.382 664,448.5C 665.606,429.854 675.44,418.854 693.5,415.5 Z"/></g>
<g><path style="opacity:0.916" fill="#fefffe" d="M 806.5,415.5 C 812.555,415.338 818.555,415.838 824.5,417C 828.374,417.727 831.707,419.393 834.5,422C 833,425.833 831.5,429.667 830,433.5C 829.439,434.022 828.772,434.355 828,434.5C 820.164,429.487 811.997,428.653 803.5,432C 798.964,435.862 796.131,440.695 795,446.5C 791.869,475.373 803.869,484.706 831,474.5C 831.829,479.533 831.662,484.533 830.5,489.5C 791.098,499.268 773.598,483.935 778,443.5C 781.474,427.858 790.974,418.525 806.5,415.5 Z"/></g>
<g><path style="opacity:0.925" fill="#fefffe" d="M 999.5,415.5 C 1027.26,412.762 1041.92,425.262 1043.5,453C 1042.56,482.938 1027.23,495.938 997.5,492C 984,489.167 975.833,481 973,467.5C 969.84,453.841 971.507,440.841 978,428.5C 983.571,421.467 990.738,417.134 999.5,415.5 Z M 1004.5,429.5 C 1016.62,428.792 1023.46,434.459 1025,446.5C 1027.54,457.734 1025.04,467.567 1017.5,476C 1003.61,481.97 994.444,477.803 990,463.5C 989.152,456.101 989.485,448.767 991,441.5C 993.221,434.77 997.721,430.77 1004.5,429.5 Z"/></g>
<g><path style="opacity:0.91" fill="#fefffe" d="M 1357.5,415.5 C 1363.57,415.261 1369.57,415.761 1375.5,417C 1379.2,418.11 1382.53,419.777 1385.5,422C 1384.06,426.373 1382.23,430.54 1380,434.5C 1372.9,430.345 1365.4,429.178 1357.5,431C 1354.42,433.612 1353.76,436.779 1355.5,440.5C 1362.84,445.504 1370.5,450.004 1378.5,454C 1388.04,463.774 1388.88,474.274 1381,485.5C 1377.16,489 1372.66,491.166 1367.5,492C 1361.17,492.667 1354.83,492.667 1348.5,492C 1344.61,491.535 1340.94,490.369 1337.5,488.5C 1336.17,483.167 1336.17,477.833 1337.5,472.5C 1346.22,477.513 1355.55,479.347 1365.5,478C 1369.64,475.28 1370.48,471.78 1368,467.5C 1360.58,462.874 1353.08,458.374 1345.5,454C 1336.77,445.36 1335.27,435.527 1341,424.5C 1345.52,419.495 1351.02,416.495 1357.5,415.5 Z"/></g>
<g><path style="opacity:0.928" fill="#fefffe" d="M 59.5,416.5 C 71.8863,416.106 84.2196,416.606 96.5,418C 102.841,419.675 107.341,423.508 110,429.5C 112.483,438.443 111.817,447.11 108,455.5C 99.1864,463.834 88.6864,467.167 76.5,465.5C 76.5,474.167 76.5,482.833 76.5,491.5C 70.8333,491.5 65.1667,491.5 59.5,491.5C 59.5,466.5 59.5,441.5 59.5,416.5 Z M 76.5,430.5 C 83.2061,429.407 89.0395,431.074 94,435.5C 94.8538,439.625 94.5204,443.625 93,447.5C 88.0723,450.889 82.5723,452.223 76.5,451.5C 76.5,444.5 76.5,437.5 76.5,430.5 Z"/></g>
<g><path style="opacity:0.924" fill="#fefffe" d="M 171.5,416.5 C 184.939,415.923 198.272,416.756 211.5,419C 223.659,425.958 227.159,436.125 222,449.5C 219.31,453.69 215.81,457.024 211.5,459.5C 218.304,470.136 225.304,480.636 232.5,491C 226.167,491.667 219.833,491.667 213.5,491C 207.875,482.251 202.375,473.417 197,464.5C 194.281,463.556 191.448,463.223 188.5,463.5C 188.5,472.833 188.5,482.167 188.5,491.5C 182.833,491.5 177.167,491.5 171.5,491.5C 171.5,466.5 171.5,441.5 171.5,416.5 Z M 188.5,430.5 C 194.728,429.683 200.395,431.016 205.5,434.5C 208.355,439.785 207.355,444.285 202.5,448C 197.934,449.309 193.267,449.809 188.5,449.5C 188.5,443.167 188.5,436.833 188.5,430.5 Z"/></g>
<g><path style="opacity:0.931" fill="#fefffe" d="M 417.5,416.5 C 427.839,416.334 438.172,416.5 448.5,417C 469.251,420.255 479.918,432.422 480.5,453.5C 480.598,474.16 470.598,486.66 450.5,491C 439.505,491.5 428.505,491.667 417.5,491.5C 417.5,466.5 417.5,441.5 417.5,416.5 Z M 434.5,430.5 C 452.372,428.054 461.706,435.721 462.5,453.5C 462.171,471.821 452.838,479.821 434.5,477.5C 434.5,461.833 434.5,446.167 434.5,430.5 Z"/></g>
<g><path style="opacity:0.933" fill="#fefffe" d="M 540.5,416.5 C 546.167,416.5 551.833,416.5 557.5,416.5C 557.333,433.503 557.5,450.503 558,467.5C 559.333,474.996 563.833,478.663 571.5,478.5C 578.529,479.082 583.029,476.082 585,469.5C 586.414,451.875 586.914,434.209 586.5,416.5C 591.833,416.5 597.167,416.5 602.5,416.5C 602.667,435.17 602.5,453.836 602,472.5C 597.189,487.007 587.022,493.674 571.5,492.5C 554.079,493.568 543.912,485.568 541,468.5C 540.5,451.17 540.333,433.837 540.5,416.5 Z"/></g>
<g><path style="opacity:0.92" fill="#fefffe" d="M 893.5,416.5 C 899.167,416.5 904.833,416.5 910.5,416.5C 910.5,441.5 910.5,466.5 910.5,491.5C 904.833,491.5 899.167,491.5 893.5,491.5C 893.5,466.5 893.5,441.5 893.5,416.5 Z"/></g>
<g><path style="opacity:0.931" fill="#fefffe" d="M 1104.5,416.5 C 1111.75,416.187 1118.92,416.52 1126,417.5C 1136,434.833 1146,452.167 1156,469.5C 1156.5,451.836 1156.67,434.17 1156.5,416.5C 1161.5,416.5 1166.5,416.5 1171.5,416.5C 1171.5,441.5 1171.5,466.5 1171.5,491.5C 1164.14,491.831 1156.8,491.497 1149.5,490.5C 1139.33,472.833 1129.17,455.167 1119,437.5C 1119.45,455.456 1119.61,473.456 1119.5,491.5C 1114.5,491.5 1109.5,491.5 1104.5,491.5C 1104.5,466.5 1104.5,441.5 1104.5,416.5 Z"/></g>
<g><path style="opacity:0.949" fill="#fefffe" d="M 1236.5,416.5 C 1250.83,416.5 1265.17,416.5 1279.5,416.5C 1279.5,421.167 1279.5,425.833 1279.5,430.5C 1270.5,430.5 1261.5,430.5 1252.5,430.5C 1252.5,435.5 1252.5,440.5 1252.5,445.5C 1261.17,445.5 1269.83,445.5 1278.5,445.5C 1278.5,450.167 1278.5,454.833 1278.5,459.5C 1269.83,459.5 1261.17,459.5 1252.5,459.5C 1252.5,465.5 1252.5,471.5 1252.5,477.5C 1261.5,477.5 1270.5,477.5 1279.5,477.5C 1279.5,482.167 1279.5,486.833 1279.5,491.5C 1265.17,491.5 1250.83,491.5 1236.5,491.5C 1236.5,466.5 1236.5,441.5 1236.5,416.5 Z"/></g>
<g><path style="opacity:0.098" fill="#fefffe" d="M 1910.5,519.5 C 1911.83,520.167 1911.83,520.167 1910.5,519.5 Z"/></g>
</svg>
